<mxfile host="app.diagrams.net" modified="2024-05-30T19:29:29.231Z" agent="Mozilla/5.0 (Windows NT 10.0; Win64; x64) AppleWebKit/537.36 (KHTML, like Gecko) Chrome/125.0.0.0 Safari/537.36 Edg/125.0.0.0" etag="h31KLAqZG9c8173GjuoO" version="24.4.10" type="github" pages="2">
  <diagram name="Page-1" id="hZWUYKIxBp9wRJCmfwkB">
    <mxGraphModel dx="1336" dy="887" grid="1" gridSize="10" guides="1" tooltips="1" connect="1" arrows="1" fold="1" page="1" pageScale="1" pageWidth="827" pageHeight="1169" math="0" shadow="0">
      <root>
        <mxCell id="0" />
        <mxCell id="1" parent="0" />
        <mxCell id="t_YQIZ7i_1Rx-VZZ3h2_-3" value="" style="strokeWidth=2;html=1;shape=mxgraph.flowchart.delay;whiteSpace=wrap;" parent="1" vertex="1">
          <mxGeometry x="509" y="250" width="100" height="60" as="geometry" />
        </mxCell>
        <mxCell id="t_YQIZ7i_1Rx-VZZ3h2_-9" style="edgeStyle=orthogonalEdgeStyle;rounded=0;orthogonalLoop=1;jettySize=auto;html=1;" parent="1" source="t_YQIZ7i_1Rx-VZZ3h2_-8" target="t_YQIZ7i_1Rx-VZZ3h2_-3" edge="1">
          <mxGeometry relative="1" as="geometry" />
        </mxCell>
        <mxCell id="t_YQIZ7i_1Rx-VZZ3h2_-8" value="process 2" style="rounded=1;whiteSpace=wrap;html=1;absoluteArcSize=1;arcSize=14;strokeWidth=2;" parent="1" vertex="1">
          <mxGeometry x="300" y="230" width="100" height="100" as="geometry" />
        </mxCell>
        <mxCell id="t_YQIZ7i_1Rx-VZZ3h2_-12" value="&amp;lt;&amp;lt;enumeration&amp;gt;&amp;gt;&lt;br&gt;&lt;b&gt;Enum1&lt;/b&gt;" style="swimlane;fontStyle=0;align=center;verticalAlign=top;childLayout=stackLayout;horizontal=1;startSize=40;horizontalStack=0;resizeParent=1;resizeParentMax=0;resizeLast=0;collapsible=0;marginBottom=0;html=1;whiteSpace=wrap;" parent="1" vertex="1">
          <mxGeometry x="344" y="55" width="140" height="70" as="geometry" />
        </mxCell>
        <mxCell id="t_YQIZ7i_1Rx-VZZ3h2_-13" value="literal1" style="text;html=1;strokeColor=none;fillColor=none;align=left;verticalAlign=middle;spacingLeft=4;spacingRight=4;overflow=hidden;rotatable=0;points=[[0,0.5],[1,0.5]];portConstraint=eastwest;whiteSpace=wrap;" parent="t_YQIZ7i_1Rx-VZZ3h2_-12" vertex="1">
          <mxGeometry y="40" width="140" height="30" as="geometry" />
        </mxCell>
        <mxCell id="Nra6KevE2ct7kjcfh6TY-4" style="edgeStyle=orthogonalEdgeStyle;rounded=0;orthogonalLoop=1;jettySize=auto;html=1;entryX=0;entryY=0.5;entryDx=0;entryDy=0;" parent="1" source="t_YQIZ7i_1Rx-VZZ3h2_-15" target="Nra6KevE2ct7kjcfh6TY-2" edge="1">
          <mxGeometry relative="1" as="geometry" />
        </mxCell>
        <UserObject label="process 1" link="data:page/id,zl81ayYCGaVnotxz7Xl9" id="t_YQIZ7i_1Rx-VZZ3h2_-15">
          <mxCell style="rounded=1;whiteSpace=wrap;html=1;absoluteArcSize=1;arcSize=14;strokeWidth=2;" parent="1" vertex="1">
            <mxGeometry x="170" y="560" width="100" height="100" as="geometry" />
          </mxCell>
        </UserObject>
        <mxCell id="Nra6KevE2ct7kjcfh6TY-5" style="edgeStyle=orthogonalEdgeStyle;rounded=0;orthogonalLoop=1;jettySize=auto;html=1;" parent="1" source="Nra6KevE2ct7kjcfh6TY-2" target="Nra6KevE2ct7kjcfh6TY-3" edge="1">
          <mxGeometry relative="1" as="geometry" />
        </mxCell>
        <mxCell id="Nra6KevE2ct7kjcfh6TY-2" value="process 2" style="rounded=1;whiteSpace=wrap;html=1;absoluteArcSize=1;arcSize=14;strokeWidth=2;" parent="1" vertex="1">
          <mxGeometry x="358" y="560" width="100" height="100" as="geometry" />
        </mxCell>
        <mxCell id="Nra6KevE2ct7kjcfh6TY-3" value="process 2" style="rounded=1;whiteSpace=wrap;html=1;absoluteArcSize=1;arcSize=14;strokeWidth=2;" parent="1" vertex="1">
          <mxGeometry x="590" y="560" width="100" height="100" as="geometry" />
        </mxCell>
      </root>
    </mxGraphModel>
  </diagram>
  <diagram id="zl81ayYCGaVnotxz7Xl9" name="Page-2">
    <mxGraphModel dx="1179" dy="782" grid="1" gridSize="10" guides="1" tooltips="1" connect="1" arrows="1" fold="1" page="1" pageScale="1" pageWidth="827" pageHeight="1169" math="0" shadow="0">
      <root>
        <mxCell id="0" />
        <mxCell id="1" parent="0" />
      </root>
    </mxGraphModel>
  </diagram>
</mxfile>
